<?xml version="1.0" standalone="no"?>
<!DOCTYPE svg PUBLIC "-//W3C//DTD SVG 20010904//EN"
 "http://www.w3.org/TR/2001/REC-SVG-20010904/DTD/svg10.dtd">
<svg version="1.0" xmlns="http://www.w3.org/2000/svg"
 width="300.000000pt" height="310.000000pt" viewBox="0 0 300.000000 310.000000"
 preserveAspectRatio="xMidYMid meet">
<metadata>
Created by potrace 1.10, written by Peter Selinger 2001-2011
</metadata>
<g transform="translate(0.000000,310.000000) scale(0.100000,-0.100000)"
fill="#000000" stroke="none">
<path d="M1660 2897 c-14 -7 -29 -26 -34 -43 -8 -28 -20 -36 -115 -74 -140
-57 -233 -113 -292 -178 -80 -88 -76 -158 16 -247 54 -53 201 -135 313 -176
48 -17 66 -29 74 -48 22 -60 69 -78 117 -45 21 15 26 15 69 -1 67 -26 180 -83
230 -117 78 -54 101 -120 62 -182 -51 -83 -254 -182 -548 -266 -135 -39 -136
-39 -154 -20 -35 37 -113 16 -120 -31 -2 -18 -23 -28 -118 -59 -191 -62 -285
-113 -315 -170 -23 -44 -18 -66 20 -109 105 -116 510 -229 1245 -346 85 -14
165 -25 176 -25 14 0 26 -10 34 -29 22 -53 90 -58 124 -9 22 32 20 55 -9 83
-31 32 -69 32 -100 0 l-25 -24 -293 49 c-670 112 -1013 207 -1124 313 -60 57
-37 102 84 165 43 22 129 56 192 76 113 36 114 36 128 16 30 -42 123 -13 123
39 0 14 10 21 36 25 65 13 291 86 386 125 295 123 376 241 252 365 -52 53
-124 95 -237 142 -59 24 -85 40 -92 57 -17 42 -36 57 -71 57 -18 0 -40 -7 -49
-16 -14 -15 -22 -14 -98 16 -168 66 -298 148 -338 214 -66 109 47 224 335 340
86 35 87 35 107 15 33 -33 81 -23 105 23 18 35 11 61 -23 88 -30 23 -39 24
-73 7z m68 -59 c5 -39 -33 -58 -60 -30 -17 16 -18 23 -8 41 17 33 64 25 68
-11z m-8 -673 c15 -18 10 -45 -13 -59 -26 -16 -62 27 -47 55 13 23 43 25 60 4z
m-346 -691 c19 -18 19 -20 6 -45 -18 -33 -70 -18 -70 21 0 19 19 40 36 40 7 0
20 -7 28 -16z m1046 -718 c0 -26 -23 -40 -51 -31 -24 8 -25 51 -2 64 25 13 53
-4 53 -33z"/>
</g>
</svg>
